<?xml version="1.0" standalone="no"?>
<!DOCTYPE svg PUBLIC "-//W3C//DTD SVG 20010904//EN"
 "http://www.w3.org/TR/2001/REC-SVG-20010904/DTD/svg10.dtd">
<svg version="1.0" xmlns="http://www.w3.org/2000/svg"
 width="1369.000000pt" height="342.000000pt" viewBox="0 0 1369.000000 342.000000"
 preserveAspectRatio="xMidYMid meet">

<g transform="translate(0.000000,342.000000) scale(0.100000,-0.100000)"
fill="#000000" stroke="none">
<path d="M1660 3089 c-112 -19 -195 -81 -262 -195 -64 -110 -1059 -2267 -1070
-2321 -16 -77 -4 -121 47 -170 33 -31 57 -44 97 -53 39 -8 1528 -10 5813 -8
l5760 3 55 26 c75 36 130 86 183 167 24 37 273 561 552 1166 489 1060 507
1101 512 1170 9 113 -32 167 -152 203 -57 17 -312 18 -5770 19 -3410 1 -5732
-2 -5765 -7z m11510 -81 c34 -8 63 -23 82 -42 60 -60 73 -26 -472 -1206 -270
-586 -507 -1095 -526 -1131 -42 -80 -117 -159 -182 -191 l-47 -23 -5755 -3
c-5188 -2 -5759 -1 -5796 13 -60 23 -79 48 -78 104 0 39 75 207 498 1121 274
591 516 1110 538 1152 51 100 109 165 173 194 l50 24 5732 0 c4423 0 5743 -3
5783 -12z"/>
<path d="M1532 1692 c-204 -445 -372 -811 -372 -815 0 -4 130 -7 288 -7 l288
0 126 273 126 272 354 6 c419 6 437 10 512 109 47 62 347 721 354 777 7 62
-27 126 -86 161 l-47 27 -585 3 -585 3 -373 -809z m962 427 c38 -30 34 -59
-32 -205 l-58 -129 -122 -3 c-67 -1 -122 -1 -122 1 0 2 28 64 61 138 34 74 70
153 80 177 l18 42 74 0 c60 0 79 -4 101 -21z"/>
<path d="M3556 2463 c-10 -21 -176 -380 -368 -798 -193 -418 -354 -768 -359
-777 -9 -17 7 -18 279 -18 l289 0 154 335 154 335 73 0 c87 0 138 -19 152 -56
9 -23 -5 -61 -116 -308 -69 -154 -129 -287 -131 -294 -4 -10 52 -12 272 -10
l277 3 105 230 c60 131 108 248 111 272 5 45 -28 130 -54 140 -28 11 -12 20
42 26 62 6 109 36 142 89 33 54 284 610 293 651 13 53 -6 118 -44 156 -64 61
-62 61 -686 61 l-567 0 -18 -37z m632 -339 c31 -21 28 -62 -12 -159 l-32 -80
-137 -3 c-75 -1 -137 0 -137 3 0 3 25 61 56 130 l57 125 91 0 c67 0 98 -4 114
-16z"/>
<path d="M5422 2485 c-114 -25 -179 -78 -240 -194 -16 -31 -146 -310 -288
-621 -284 -621 -286 -629 -242 -704 15 -27 40 -48 73 -65 l49 -26 491 0 c429
0 497 2 548 17 74 21 128 58 173 119 19 26 161 323 315 659 274 595 281 613
277 664 -5 65 -34 108 -91 139 -42 22 -47 22 -522 24 -379 1 -493 -1 -543 -12z
m437 -360 c51 -26 47 -45 -46 -250 -188 -413 -264 -570 -290 -597 -66 -69
-203 -56 -203 20 0 36 326 751 359 786 49 53 124 71 180 41z"/>
<path d="M7124 2485 c-82 -18 -111 -34 -166 -93 -58 -61 -60 -65 -368 -737
-233 -506 -253 -555 -254 -607 -1 -49 3 -62 30 -94 16 -21 48 -47 70 -58 38
-20 53 -21 534 -21 551 0 565 1 651 68 67 51 107 121 269 477 84 184 168 368
186 408 l34 72 -352 -2 -351 -3 -78 -169 c-44 -93 -79 -173 -79 -177 0 -5 29
-9 64 -11 l65 -3 -49 -105 c-61 -134 -107 -185 -173 -195 -33 -5 -60 -3 -85 7
-71 27 -72 24 118 443 97 216 183 392 198 408 14 15 42 32 61 37 21 6 193 10
404 10 l368 0 46 98 c25 53 62 134 83 180 l39 82 -602 -1 c-462 0 -616 -4
-663 -14z"/>
<path d="M8433 1688 l-701 -813 292 -3 291 -3 35 38 c19 21 60 67 90 101 l55
63 251 -3 252 -3 -29 -95 c-16 -52 -29 -96 -29 -98 0 -1 129 -1 287 0 l287 3
242 805 242 805 -87 6 c-47 4 -242 7 -432 8 l-346 1 -700 -812z m748 2 l-77
-265 -153 -3 c-84 -1 -151 1 -149 6 4 12 451 532 454 529 2 -1 -32 -122 -75
-267z"/>
<path d="M11535 1694 c-203 -442 -372 -809 -373 -814 -3 -7 100 -9 288 -8
l291 3 350 760 c192 418 361 784 374 813 l24 52 -292 0 -292 -1 -370 -805z"/>
<path d="M10591 2480 c-158 -23 -179 -48 -340 -391 -148 -316 -151 -325 -151
-393 0 -63 31 -115 87 -142 34 -17 67 -19 289 -22 l252 -3 -50 -107 c-49 -106
-75 -143 -113 -165 -14 -8 -131 -14 -368 -17 l-348 -5 -70 -150 c-39 -82 -77
-165 -85 -183 l-14 -33 553 4 c393 3 563 7 592 16 96 29 174 117 240 270 19
44 76 170 126 278 81 174 93 206 97 263 3 56 0 70 -20 100 -46 68 -73 75 -340
78 -131 2 -238 6 -238 9 0 2 24 56 54 119 43 89 60 116 81 124 16 6 161 10
358 10 l332 0 80 166 c44 92 82 171 83 175 4 11 -1012 10 -1087 -1z"/>
</g>
</svg>
